<?xml version="1.0" encoding="UTF-8" standalone="no"?>
<!-- Created with Inkscape (http://www.inkscape.org/) -->

<svg
   xmlns:dc="http://purl.org/dc/elements/1.1/"
   xmlns:cc="http://creativecommons.org/ns#"
   xmlns:rdf="http://www.w3.org/1999/02/22-rdf-syntax-ns#"
   xmlns:svg="http://www.w3.org/2000/svg"
   xmlns="http://www.w3.org/2000/svg"
   xmlns:sodipodi="http://sodipodi.sourceforge.net/DTD/sodipodi-0.dtd"
   xmlns:inkscape="http://www.inkscape.org/namespaces/inkscape"
   id="svg4136"
   version="1.1"
   inkscape:version="0.91 r13725"
   width="1800"
   height="1012.5"
   viewBox="0 0 1800 1012.5"
   sodipodi:docname="Blitz_Template.svg">
  <metadata
     id="metadata4142">
    <rdf:RDF>
      <cc:Work
         rdf:about="">
        <dc:format>image/svg+xml</dc:format>
        <dc:type
           rdf:resource="http://purl.org/dc/dcmitype/StillImage" />
        <dc:title></dc:title>
      </cc:Work>
    </rdf:RDF>
  </metadata>
  <defs
     id="defs4140" />
  <sodipodi:namedview
     pagecolor="#ffffff"
     bordercolor="#666666"
     borderopacity="1"
     objecttolerance="10"
     gridtolerance="10"
     guidetolerance="10"
     inkscape:pageopacity="0"
     inkscape:pageshadow="2"
     inkscape:window-width="1920"
     inkscape:window-height="1017"
     id="namedview4138"
     showgrid="false"
     inkscape:zoom="0.39012346"
     inkscape:cx="-132.09456"
     inkscape:cy="851.60426"
     inkscape:window-x="1912"
     inkscape:window-y="-8"
     inkscape:window-maximized="1"
     inkscape:current-layer="svg4136" />
  <path
     style="fill:#000000"
     d="m 905.70804,551.18327 c -8.1833,-1.91081 -14.827,-4.30898 -24.0461,-8.67982 -14.1355,-6.70169 -15.7386,-8.72694 -46.0901,-58.22609 -14.513,-23.66886 -27.6689,-45.86071 -29.2353,-49.31525 -8.4917,-18.72809 -7.7742,-47.7807 1.5141,-61.30413 3.6619,-5.33147 14.9392,-15.44487 23.5314,-21.10265 2.9808,-1.96287 8.7792,-4.8662 12.8852,-6.45184 l 7.4654,-2.88298 24.6458,0.32309 24.6458,0.32309 0.5131,-2.8125 c 0.2822,-1.54687 1.0197,-6.1875 1.6388,-10.3125 l 1.1257,-7.5 5.3906,-1.36441 c 4.7182,-1.19422 6.0605,-1.19422 10.7606,0 l 5.37,1.36441 1.1885,7.5 c 0.6537,4.125 1.4004,8.76563 1.6594,10.3125 l 0.471,2.8125 24.4652,-0.3278 c 27.372,-0.36674 28.9233,-0.10518 41.935,7.0707 7.54096,4.1588 21.94836,16.21435 26.03856,21.78789 10.8591,14.79738 11.1657,45.32309 0.6635,66.04823 -1.3223,2.60948 -13.9979,23.64566 -28.16776,46.74707 -29.7326,48.47324 -31.4039,50.58014 -45.4188,57.25764 -17.5155,8.34543 -31.9978,11.29009 -42.9496,8.73285 z m 6.9669,-21.45721 c -0.3557,-3.73828 -0.7936,-7.05767 -0.9732,-7.37642 -0.1796,-0.31876 -2.3933,-0.85372 -4.9192,-1.1888 -17.2618,-2.28985 -33.5152,-21.18881 -33.9548,-39.48165 l -0.09,-3.75 -1.9979,4.21875 c -2.8264,5.96857 -2.7776,18.96149 0.098,26.25 5.443,13.79306 19.9526,24.804 35.749,27.12888 2.868,0.42212 5.5566,0.81892 5.9745,0.8818 0.418,0.0629 0.4689,-2.94427 0.1132,-6.68256 z m 17.4471,3.94366 c 21.8217,-6.29641 35.0344,-27.89564 29.522,-48.2603 -2.0053,-7.40812 -3.311,-8.56418 -3.311,-2.93158 0,2.3048 -0.7993,6.7586 -1.7762,9.89732 -4.5823,14.7231 -16.5001,25.57808 -31.413,28.61151 l -5.717,1.16291 -0.5842,6.48356 c -0.3213,3.56595 -0.419,6.77218 -0.2172,7.12495 0.5109,0.89289 6.2327,0.008 13.4966,-2.08837 z m -2.1507,-25.70383 c 6.5715,-2.95577 12.4987,-8.71672 15.287,-14.85828 2.4224,-5.33563 2.4224,-15.64621 0,-20.98184 -2.6109,-5.75096 -8.8804,-12.07041 -14.9163,-15.0352 -4.7323,-2.32445 -6.279,-2.5949 -14.6652,-2.56446 -10.775,0.0391 -15.473,1.65207 -22.0078,7.55595 -5.9669,5.39066 -8.6435,10.68029 -9.1769,18.13562 -0.5673,7.92788 1.3456,14.20034 5.9824,19.61745 9.3641,10.93981 25.7513,14.31326 39.4968,8.13076 z m -51.77,-57.77682 c 7.4234,-1.37229 13.3156,-4.508 17.9805,-9.56877 6.2474,-6.77768 7.2902,-9.41651 7.2994,-18.47236 0.01,-7.09183 -0.2984,-8.52217 -2.7773,-12.99771 -3.1799,-5.74111 -8.4184,-10.40158 -15.1018,-13.43527 -6.9035,-3.1336 -18.6642,-2.99746 -25.7494,0.29807 -7.3465,3.41714 -11.65,7.5563 -15.0618,14.48665 -2.6988,5.48199 -2.9171,6.59543 -2.5112,12.81041 0.5085,7.78763 2.7569,12.97891 7.8098,18.03178 4.0908,4.09086 11.5732,7.96306 17.2419,8.92288 2.3556,0.39884 4.5218,0.77477 4.8138,0.83542 0.292,0.0607 3.0173,-0.34935 6.0561,-0.9111 z m 95.7384,-1.95425 c 6.5312,-2.40165 12.7869,-8.13073 15.9813,-14.63584 6.5033,-13.24329 0.5802,-29.52355 -13.3437,-36.6766 -20.5333,-10.54846 -45.901,3.42459 -45.7964,25.22556 0.1,20.7269 21.9003,33.90414 43.1588,26.08688 z m -138.395,-2.88376 c -1.1192,-1.67578 -3.1645,-5.36718 -4.5451,-8.20312 -2.2574,-4.63683 -2.5103,-6.1951 -2.5103,-15.46875 0,-9.33196 0.2493,-10.84493 2.6219,-15.91207 1.442,-3.07977 3.2934,-6.34152 4.114,-7.24834 1.3856,-1.53107 1.1091,-2.08503 -3.873,-7.75981 -2.9509,-3.36106 -5.7461,-6.11103 -6.2117,-6.11103 -1.4172,0 -5.3721,7.00885 -7.4717,13.24134 -5.5545,16.48847 0.6403,36.44505 14.6287,47.12596 2.4366,1.86049 4.6219,3.3827 4.8562,3.3827 0.2343,0 -0.4898,-1.37109 -1.609,-3.04688 z M 1000.7736,444.298 c 5.4291,-4.22498 11.3765,-12.87652 13.776,-20.03941 2.7135,-8.1002 2.7429,-18.97511 0.072,-26.58517 -2.0489,-5.8374 -6.4341,-13.31049 -7.542,-12.85241 -0.91,0.37631 -10.43396,10.93698 -10.43396,11.56981 0,0.26016 1.2448,2.68148 2.7662,5.3807 8.16806,14.49137 7.21436,30.67053 -2.5782,43.74 -2.6016,3.47211 -1.7397,3.20667 3.94006,-1.21352 z m -57.60606,-59.73008 c 15.7218,-5.88329 32.3181,-3.99336 45.0112,5.12571 l 4.8181,3.46145 6.0431,-5.30556 c 3.32366,-2.91805 6.04306,-5.66225 6.04306,-6.0982 0,-1.35162 -9.63586,-8.14737 -15.09836,-10.64821 -17.7726,-8.13653 -38.9086,-4.414 -52.9523,9.32608 -3.1621,3.09375 -6.8736,7.84663 -8.2477,10.56195 l -2.4984,4.93696 5.8422,-4.70773 c 3.2132,-2.58925 8.1808,-5.58285 11.0391,-6.65245 z m -42.2109,5.57976 c -2.8712,-5.6281 -12.5096,-14.86219 -18.6861,-17.90238 -17.9627,-8.84154 -38.9194,-6.42227 -53.8922,6.22137 l -3.736,3.15483 5.0558,4.5601 c 8.0601,7.26982 7.7959,7.16698 11.4264,4.44785 7.8391,-5.87111 19.0916,-9.7038 28.4898,-9.7038 10.307,0 24.2722,5.24377 30.0633,11.28838 1.4369,1.49977 2.7781,2.5612 2.9806,2.35873 0.2025,-0.20247 -0.5632,-2.19375 -1.7016,-4.42508 z"
     id="path4178"
     inkscape:connector-curvature="0" />
</svg>
