<?xml version="1.0" encoding="UTF-8" standalone="no"?>
<!-- Created with Inkscape (http://www.inkscape.org/) -->

<svg
   id="svg4136"
   version="1.1"
   inkscape:version="1.2.1 (9c6d41e410, 2022-07-14)"
   width="1800"
   height="1012.5"
   viewBox="0 0 1800 1012.5"
   sodipodi:docname="Gravity_Template.svg"
   xmlns:inkscape="http://www.inkscape.org/namespaces/inkscape"
   xmlns:sodipodi="http://sodipodi.sourceforge.net/DTD/sodipodi-0.dtd"
   xmlns="http://www.w3.org/2000/svg"
   xmlns:svg="http://www.w3.org/2000/svg"
   xmlns:rdf="http://www.w3.org/1999/02/22-rdf-syntax-ns#"
   xmlns:cc="http://creativecommons.org/ns#"
   xmlns:dc="http://purl.org/dc/elements/1.1/">
  <metadata
     id="metadata4142">
    <rdf:RDF>
      <cc:Work
         rdf:about="">
        <dc:format>image/svg+xml</dc:format>
        <dc:type
           rdf:resource="http://purl.org/dc/dcmitype/StillImage" />
        <dc:title />
      </cc:Work>
    </rdf:RDF>
  </metadata>
  <defs
     id="defs4140" />
  <sodipodi:namedview
     pagecolor="#ffffff"
     bordercolor="#666666"
     borderopacity="1"
     objecttolerance="10"
     gridtolerance="10"
     guidetolerance="10"
     inkscape:pageopacity="0"
     inkscape:pageshadow="2"
     inkscape:window-width="3440"
     inkscape:window-height="1377"
     id="namedview4138"
     showgrid="false"
     inkscape:zoom="0.55171788"
     inkscape:cx="709.6018"
     inkscape:cy="688.75781"
     inkscape:window-x="1912"
     inkscape:window-y="-8"
     inkscape:window-maximized="1"
     inkscape:current-layer="svg4136"
     inkscape:showpageshadow="2"
     inkscape:pagecheckerboard="0"
     inkscape:deskcolor="#d1d1d1" />
  <path
     style="fill:#ffffff"
     d="m 871.15397,718.78728 c -1.8047,-0.21325 -7.5,-0.83709 -12.6562,-1.38633 -40.319,-4.29475 -81.9085,-19.38685 -115.9671,-42.08251 -16.4591,-10.96779 -26.1283,-18.83882 -39.1959,-31.90639 -30.8532,-30.8532 -52.4255,-68.37455 -62.7973,-109.22547 -5.585,-21.99713 -6.9666,-33.33875 -6.9666,-57.1875 0,-23.84875 1.3816,-35.19037 6.9666,-57.1875 10.3718,-40.85092 31.9441,-78.37227 62.7973,-109.22547 41.0432,-41.04321 94.6077,-66.58841 155.6317,-74.22159 5.4454,-0.68113 19.0595,-1.2313 30.4688,-1.2313 11.4093,0 25.0234,0.55017 30.4687,1.2313 24.6985,3.08941 49.8879,9.53609 70.3125,17.99503 6.4453,2.66935 12.60533,5.06041 13.68883,5.31348 1.5909,0.37155 4.9021,-2.71441 17.1988,-16.02878 8.3758,-9.06891 15.505,-16.48697 15.8425,-16.48458 0.3375,0.003 1.9847,1.28939 3.6605,2.86001 3.0006,2.81229 3.0469,2.98401 3.0469,11.29887 l 0,8.44318 -8.9062,10.30238 c -4.8985,5.66632 -8.9063,10.63124 -8.9063,11.03318 0,0.40193 3.2533,2.79167 7.2295,5.31054 9.478,6.00403 23.6182,16.61474 31.072,23.31606 5.7453,5.16537 6.0224,5.29796 7.7679,3.71824 3.1668,-2.86592 21.4305,-25.43677 21.4305,-26.48449 0,-0.55329 -8.8037,-8.84178 -19.5638,-18.41888 l -19.5638,-17.41291 -0.6103,-5.19301 c -0.6729,-5.72535 -1.013,-5.02692 7.3942,-15.18607 2.5781,-3.11536 4.9695,-5.58462 5.3142,-5.48725 0.3446,0.0974 15.4448,13.39075 33.5559,29.54081 l 32.9294,29.36374 -7.5435,8.26288 -7.5435,8.26287 7.4465,7.24647 7.4465,7.24648 -15.7326,17.41133 -15.7325,17.41133 6.4556,9.90307 c 13.7715,21.12574 24.6164,45.78789 30.7393,69.90308 5.5848,21.99713 6.9665,33.33875 6.9665,57.1875 0,23.84875 -1.3817,35.19037 -6.9665,57.1875 -10.3719,40.85092 -31.9442,78.37227 -62.7973,109.22547 -40.0928,40.09279 -92.21583,65.45905 -151.29063,73.62722 -9.9457,1.37518 -46.1564,2.56741 -53.0911,1.74801 z m 49.5033,-38.33206 c 57.2293,-8.25245 108.87693,-36.87866 142.99173,-79.25463 20.4226,-25.36793 35.0773,-56.33196 41.3974,-87.46814 13.2826,-65.43835 -7.7626,-133.53774 -56.2534,-182.02863 -33.7463,-33.74635 -77.71303,-55.28102 -128.60293,-62.98911 -13.9205,-2.1085 -47.5891,-2.1085 -61.5097,0 -66.143,10.01842 -120.6928,43.62221 -155.4888,95.78437 -8.0209,12.02393 -18.6369,33.91834 -23.1673,47.7804 -16.5038,50.49705 -12.7512,103.17895 10.7104,150.36208 21.1459,42.52608 53.6728,74.66237 97.4506,96.28029 26.4142,13.0436 51.6486,19.86324 86.25,23.30918 7.3006,0.72707 36.6971,-0.40231 46.222,-1.77581 z m -31.3432,-30.25302 c -1.9029,-2.96484 -4.9204,-7.71093 -6.7055,-10.54687 -4.1738,-6.63102 -5.35,-7.5 -10.1518,-7.5 -9.216,0 -34.7766,-6.24915 -49.2805,-12.04826 -12.0933,-4.83532 -32.0512,-16.59143 -42.6594,-25.12827 l -3.9183,-3.15327 -5.3533,6.33678 c -2.9444,3.48522 -5.6159,6.44395 -5.9369,6.57495 -0.3209,0.13101 -4.9068,-3.16649 -10.1909,-7.32775 l -9.6074,-7.56595 5.6012,-6.85468 5.6011,-6.85467 -5.1301,-5.50506 c -19.7685,-21.21326 -27.8625,-44.46952 -30.0578,-86.36445 l -0.6509,-12.42187 -10.78,0 -10.78,0 0.6021,-7.73438 c 0.3311,-4.2539 0.6046,-9.09119 0.6077,-10.74953 l 0.01,-3.01516 9.9878,-0.26609 9.9877,-0.26609 2.1875,-8.24686 c 3.1313,-11.80532 6.1035,-18.83467 15.1441,-35.81564 8.7843,-16.49969 14.2615,-25.41737 20.4768,-33.3396 2.2501,-2.86802 4.0911,-5.44975 4.0911,-5.73718 0,-0.28742 -3.1623,-4.47991 -7.0274,-9.31665 -3.865,-4.83674 -6.9236,-9.06785 -6.7968,-9.40246 0.5607,-1.48004 17.1384,-14.72642 17.6772,-14.12492 0.3304,0.36894 5.932,7.10433 12.4478,14.96751 l 11.847,14.29669 -5.7996,7.26581 c -16.0829,20.14869 -37.0336,57.67848 -40.429,72.42205 -2.9999,13.02613 -3.7503,22.38213 -3.1958,39.84375 0.8447,26.60232 6.2847,47.91468 15.603,61.12901 2.471,3.50405 9.5044,11.30835 15.63,17.34292 23.883,23.52823 39.556,34.07687 61.5783,41.44492 29.5543,9.88806 62.4277,11.88718 93.2365,5.66997 33.9188,-6.84482 53.4504,-17.92057 83.08493,-47.11489 6.1256,-6.03457 13.159,-13.83887 15.63,-17.34292 9.3183,-13.21433 14.7583,-34.52669 15.6031,-61.12901 0.5544,-17.46162 -0.196,-26.81762 -3.1959,-39.84375 -3.3954,-14.74358 -24.3461,-52.27336 -40.42903,-72.42205 l -5.7997,-7.26581 11.84703,-14.29669 c 6.5159,-7.86318 12.1175,-14.59857 12.448,-14.96751 0.5386,-0.6015 17.1165,12.64488 17.6772,14.12492 0.1267,0.33461 -2.9319,4.56572 -6.7969,9.40246 -3.8651,4.83674 -7.0274,9.02923 -7.0274,9.31665 0,0.28743 1.841,2.86916 4.0911,5.73718 6.2153,7.92223 11.6925,16.83991 20.4768,33.3396 9.0405,16.98097 12.0128,24.01032 15.144,35.81564 l 2.1875,8.24686 9.9878,0.26609 9.9877,0.26609 0.01,3.01516 c 0,1.65833 0.2765,6.49563 0.6077,10.74953 l 0.602,7.73438 -10.7799,0 -10.78,0 -0.6509,12.42187 c -2.1954,41.89493 -10.2892,65.15119 -30.0577,86.36445 l -5.1302,5.50506 5.6012,6.85467 5.6012,6.85468 -9.6074,7.56595 c -5.2841,4.16126 -9.87,7.45876 -10.1909,7.32775 -0.321,-0.131 -2.9926,-3.08973 -5.9369,-6.57495 l -5.3533,-6.33678 -3.9183,3.15327 c -15.74693,12.67216 -37.95803,24.39804 -57.35593,30.27974 -7.7821,2.35964 -29.0965,6.87789 -32.6539,6.92201 -3.3652,0.0417 -7.6041,4.62497 -13.1994,14.27165 -2.916,5.02735 -5.486,9.14063 -5.7111,9.14063 -0.2251,0 -1.9662,-2.42578 -3.8692,-5.39063 z m -5.5114,-144.87112 c -21.3515,-11.25364 -37.7433,-26.51332 -49.5682,-46.1445 l -3.3882,-5.625 -4e-4,-55.78125 -4e-4,-55.78125 2.9331,-5.625 c 8.1441,-15.61861 17.919,-25.88346 30.3442,-31.86503 20.3191,-9.78184 35.9308,-9.78184 56.25,0 12.4251,5.98157 22.2,16.24642 30.3441,31.86503 l 2.9331,5.625 -4e-4,55.78125 -4e-4,55.78125 -3.3882,5.625 c -8.9504,14.85909 -22.7076,29.36353 -36.3902,38.36663 -7.2741,4.78637 -20.3286,11.81896 -21.834,11.76224 -0.3996,-0.0151 -4.105,-1.80801 -8.2341,-3.98437 z m 17.1378,-28.69383 c 14.4533,-7.26789 22.509,-15.13145 30.3021,-29.57947 l 3.8334,-7.10689 -0.3204,-48.12052 -0.3203,-48.12052 -3.5996,-5.42055 c -5.2215,-7.86293 -10.37,-13.11986 -17.3968,-17.76336 -7.2414,-4.78532 -19.1041,-10.87061 -21.1911,-10.87061 -2.0871,0 -13.9497,6.08529 -21.1912,10.87061 -7.0268,4.6435 -12.1753,9.90043 -17.3967,17.76336 l -3.5996,5.42055 -0.3204,48.12052 -0.3204,48.12052 3.8334,7.10689 c 5.2852,9.79844 10.7973,16.65356 17.4261,21.67207 6.1186,4.63218 15.242,9.57416 19.6938,10.66769 1.5468,0.37997 2.9273,0.73405 3.0677,0.78683 0.1403,0.0528 3.5153,-1.54343 7.5,-3.54712 z m -8.3787,-27.76317 c -0.3083,-0.51562 -1.6801,-4.63321 -3.0485,-9.15019 -2.2653,-7.47793 -2.6737,-8.17129 -4.5642,-7.74998 -1.753,0.39066 -3.4585,-1.35103 -10.9526,-11.18557 -6.6267,-8.69606 -9.1705,-11.40412 -10.0371,-10.68493 -1.5051,1.24913 -2.7936,0.39833 -4.5549,-3.00753 l -1.4236,-2.75305 4.4772,-0.007 c 2.4624,-0.004 7.3127,-0.27447 10.7783,-0.60179 l 6.3011,-0.59514 0.292,-11.82007 0.292,-11.82009 0.2038,11.95313 0.2037,11.95346 5.056,0 c 5.5925,0 6.1156,-0.53138 6.3048,-6.4048 0.1092,-3.38782 0.1247,-3.37274 1.039,1.01417 0.9942,4.7703 1.2951,4.93545 6.4061,3.51563 l 3.337,-0.92704 3.6483,-20.16148 c 2.0065,-11.08881 3.8946,-20.16148 4.1957,-20.16148 0.3011,0 2.1628,9.38672 4.137,20.85937 l 3.5896,20.85938 -1.4651,7.75392 c -1.5514,8.21064 -5.232,16.15428 -8.7769,18.94269 -1.1754,0.92452 -4.065,1.97007 -6.4214,2.32343 -2.3563,0.35336 -4.444,1.14028 -4.6391,1.74872 -0.1952,0.60843 -1.134,4.69218 -2.0862,9.07499 -0.9523,4.38281 -1.9837,7.54687 -2.292,7.03125 z m 231.04373,-190.1012 c -4.727,-4.24121 -17.6605,-15.72693 -28.7412,-25.5238 -11.0806,-9.79688 -20.1606,-18.02344 -20.1776,-18.28125 -0.017,-0.25781 2.8022,-3.50106 6.265,-7.20722 l 6.296,-6.73847 20.1562,17.82544 c 11.0859,9.80399 23.8477,21.01052 28.3594,24.90339 4.5117,3.89288 8.2031,7.45942 8.2031,7.92564 0,0.65682 -6.4687,8.84394 -11.1622,14.12752 -0.3323,0.37404 -4.4717,-2.79002 -9.1987,-7.03125 z"
     id="path4148"
     inkscape:connector-curvature="0"
     inkscape:label="path4148" />
</svg>
