<?xml version="1.0" encoding="UTF-8" standalone="no"?>
<!-- Created with Inkscape (http://www.inkscape.org/) -->

<svg
   xmlns:dc="http://purl.org/dc/elements/1.1/"
   xmlns:cc="http://creativecommons.org/ns#"
   xmlns:rdf="http://www.w3.org/1999/02/22-rdf-syntax-ns#"
   xmlns:svg="http://www.w3.org/2000/svg"
   xmlns="http://www.w3.org/2000/svg"
   xmlns:sodipodi="http://sodipodi.sourceforge.net/DTD/sodipodi-0.dtd"
   xmlns:inkscape="http://www.inkscape.org/namespaces/inkscape"
   id="svg4136"
   version="1.1"
   inkscape:version="0.91 r13725"
   width="3600"
   height="2025"
   viewBox="0 0 3600 2025"
   sodipodi:docname="Mini_Rocket_Template.svg">
  <metadata
     id="metadata4142">
    <rdf:RDF>
      <cc:Work
         rdf:about="">
        <dc:format>image/svg+xml</dc:format>
        <dc:type
           rdf:resource="http://purl.org/dc/dcmitype/StillImage" />
        <dc:title />
      </cc:Work>
    </rdf:RDF>
  </metadata>
  <defs
     id="defs4140" />
  <sodipodi:namedview
     pagecolor="#ffffff"
     bordercolor="#666666"
     borderopacity="1"
     objecttolerance="10"
     gridtolerance="10"
     guidetolerance="10"
     inkscape:pageopacity="0"
     inkscape:pageshadow="2"
     inkscape:window-width="1920"
     inkscape:window-height="1017"
     id="namedview4138"
     showgrid="false"
     inkscape:zoom="0.28179515"
     inkscape:cx="1365.1592"
     inkscape:cy="1220.835"
     inkscape:window-x="1912"
     inkscape:window-y="-8"
     inkscape:window-maximized="1"
     inkscape:current-layer="svg4136" />
  <path
     style="fill:#666666"
     d="m 1781.7601,1243.3886 c 16.6919,-14.6824 35.5091,-36.3372 44.0934,-50.7424 4.9695,-8.3393 9.8118,-20.2846 12.3296,-30.4155 1.1915,-4.7943 1.5945,-10.7524 1.6351,-24.1748 0.029,-9.7969 -0.1571,-19.458 -0.4149,-21.4689 l -0.4688,-3.6564 14.2693,-8.1742 c 45.8643,-26.2737 86.191,-56.607 116.0515,-87.2928 14.5546,-14.9568 22.1656,-24.30602 33.1628,-40.73627 23.7186,-35.43619 28.5263,-59.84002 17.9945,-91.33956 -4.0425,-12.09084 -13.1543,-32.88958 -16.0128,-36.55063 l -1.8298,-2.34375 -0.021,4.40511 c -0.051,10.65723 -5.1669,42.9284 -9.4426,59.55654 -7.362,28.63138 -17.5251,51.51538 -30.7002,69.12782 -13.7276,18.35078 -42.1253,44.12854 -72.378,65.70084 -6.4453,4.5959 -16.7813,12.6059 -22.9688,17.8 -20.4051,17.1292 -32.0735,25.1671 -55.0874,37.9476 -12.4599,6.9195 -44.5726,22.1832 -50.3085,23.9126 l -2.271,0.6846 1.8023,-2.3359 c 27.7539,-35.9745 50.2947,-67.4674 64.7139,-90.4155 18.982,-30.2098 23.2044,-42.01743 22.6653,-63.38305 l -0.2646,-10.48585 -4.6378,-0.84572 c -6.3929,-1.16568 -21.7985,0.65438 -30.3948,3.591 -17.8341,6.09253 -59.2726,34.75286 -103.7174,71.73472 -13.3884,11.1403 -22.009,16.8499 -34.6875,22.9741 -9.4981,4.5879 -32.3552,13.6151 -38.037,15.0222 l -2.4119,0.5974 10.1082,-44.8255 c 5.5594,-24.654 10.1252,-45.74117 10.1462,-46.86026 0.034,-1.82203 -0.6113,-2.10431 -6.1746,-2.70009 -8.8963,-0.95269 -27.9827,0.0862 -34.536,1.8794 -16.1833,4.42903 -38.6354,20.74005 -56.5491,41.08195 -4.6429,5.2723 -9.5536,10.8516 -10.9126,12.3984 l -2.4709,2.8125 0.5782,-4.6875 c 1.3645,-11.0615 6.28,-33.01916 9.7904,-43.73354 5.0514,-15.41784 14.258,-34.13043 21.519,-43.73746 20.5234,-27.15444 56.6391,-52.93154 112.0462,-79.97151 51.428,-25.09811 114.9275,-48.14979 187.0602,-67.90683 12.6328,-3.46011 27.3984,-7.5033 32.8125,-8.98487 5.414,-1.48156 14.4095,-3.60349 19.9901,-4.71541 l 10.1464,-2.02167 27.3536,27.19299 c 15.0444,14.95614 38.8497,38.50985 52.9005,52.34158 20.4158,20.09745 25.5469,25.63731 25.5469,27.5818 0,5.7394 -12.169,48.9017 -22.4803,79.73626 -28.2694,84.53446 -63.6544,153.49786 -100.243,195.36776 -26.0749,29.8387 -70.6046,59.3651 -116.3392,77.1413 -8.2306,3.1991 -27.3349,9.6784 -28.5369,9.6784 -0.5326,0 1.9789,-2.5925 5.5812,-5.761 z m 70.5622,-49.261 c 20.7113,-16.1726 46.9138,-40.9671 62.2277,-58.8842 15.5744,-18.2219 32.2606,-42.2203 47.5848,-68.4375 8.5455,-14.6201 21.0818,-38.8429 20.4367,-39.4881 -0.2295,-0.2294 -2.2666,1.1297 -4.527,3.0202 -2.2605,1.8907 -12.1459,9.6884 -21.9677,17.3284 -16.2813,12.6645 -18.76,14.9915 -28.0772,26.3589 -23.5255,28.7019 -45.3449,52.8157 -65.1488,71.9993 l -12.0977,11.7188 -1.4647,10.7812 c -0.8057,5.9297 -2.5156,15.4142 -3.8,21.0767 -1.2843,5.6624 -2.3351,10.4085 -2.3351,10.5469 0,0.8838 2.0548,-0.4654 9.169,-6.0206 z m -276.3565,26.3384 c 0,-0.3072 12.745,-23.4976 28.3222,-51.5342 l 28.3222,-50.9758 5.6621,-4.1149 c 3.1143,-2.2632 13.0451,-9.5142 22.0685,-16.1131 48.1067,-35.181 88.2072,-62.8756 110.625,-76.4008 11.2776,-6.804 36.0084,-19.0813 37.4604,-18.5966 1.2633,0.4217 -9.2031,21.9056 -16.8311,34.5485 -13.664,22.6473 -43.0594,61.2854 -94.6895,124.4629 l -7.029,8.601 -56.3978,25.3408 c -31.0187,13.9374 -56.6486,25.3408 -56.9554,25.3408 -0.3066,0 -0.5576,-0.2513 -0.5576,-0.5586 z m 432.087,-403.73824 -40.5532,-39.60937 8.3738,-0.74304 c 16.1179,-1.43024 48.5198,0.14836 75.6393,3.6851 l 4.4531,0.58075 -0.014,6.67609 c -0.037,17.26066 -5.0011,69.01985 -6.6189,69.01985 -0.3996,0 -18.9753,-17.82422 -41.2795,-39.60938 z"
     id="path4146"
     inkscape:connector-curvature="0" />
</svg>
